<?xml version="1.0" encoding="UTF-8" standalone="no"?>
<svg width="800" height="500" xmlns="http://www.w3.org/2000/svg">
  <!-- Background -->
  <rect x="0" y="0" width="800" height="500" fill="#f9f9f9" rx="10" ry="10" />
  
  <!-- Title -->
  <text x="400" y="40" font-family="Arial" font-size="24" text-anchor="middle" fill="#1655c0" font-weight="bold">Absolute Zero Implementation Method</text>
  <text x="400" y="70" font-family="Arial" font-size="16" text-anchor="middle" fill="#666">Reinforced Self-play Reasoning with Zero Data</text>
  
  <!-- Main Flow Diagram -->
  <g transform="translate(50, 120)">
    <!-- Step 1: Initial State -->
    <rect x="0" y="0" width="200" height="100" rx="10" ry="10" fill="#e6f0ff" stroke="#1655c0" stroke-width="2" />
    <text x="100" y="30" font-family="Arial" font-size="16" text-anchor="middle" fill="#1655c0" font-weight="bold">Initial State</text>
    <text x="100" y="60" font-family="Arial" font-size="12" text-anchor="middle" fill="#333" width="180">Start with minimal assumptions and base architecture</text>
    
    <!-- Arrow 1 -->
    <path d="M200 50 L250 50" stroke="#1655c0" stroke-width="2" fill="none" marker-end="url(#arrowhead)" />
    
    <!-- Step 2: Self-Play Generation -->
    <rect x="250" y="0" width="200" height="100" rx="10" ry="10" fill="#e6f0ff" stroke="#1655c0" stroke-width="2" />
    <text x="350" y="30" font-family="Arial" font-size="16" text-anchor="middle" fill="#1655c0" font-weight="bold">Self-Play Generation</text>
    <text x="350" y="55" font-family="Arial" font-size="12" text-anchor="middle" fill="#333" width="180">System proposes its own</text>
    <text x="350" y="75" font-family="Arial" font-size="12" text-anchor="middle" fill="#333" width="180">improvements and challenges</text>
    
    <!-- Arrow 2 -->
    <path d="M450 50 L500 50" stroke="#1655c0" stroke-width="2" fill="none" marker-end="url(#arrowhead)" />
    
    <!-- Step 3: Verification -->
    <rect x="500" y="0" width="200" height="100" rx="10" ry="10" fill="#e6f0ff" stroke="#1655c0" stroke-width="2" />
    <text x="600" y="30" font-family="Arial" font-size="16" text-anchor="middle" fill="#1655c0" font-weight="bold">Verification</text>
    <text x="600" y="55" font-family="Arial" font-size="12" text-anchor="middle" fill="#333" width="180">Validate improvements using</text>
    <text x="600" y="75" font-family="Arial" font-size="12" text-anchor="middle" fill="#333" width="180">predetermined metrics</text>
    
    <!-- Feedback Loop Arrow -->
    <path d="M600 100 L600 150 L100 150 L100 100" stroke="#1655c0" stroke-width="2" fill="none" marker-end="url(#arrowhead)" stroke-dasharray="5,5" />
    <text x="350" y="140" font-family="Arial" font-size="14" text-anchor="middle" fill="#666">Iterative Feedback Loop</text>
  </g>
  
  <!-- Three Key Components -->
  <g transform="translate(50, 290)">
    <!-- Component 1 -->
    <rect x="25" y="0" width="200" height="150" rx="10" ry="10" fill="#f0f7ff" stroke="#1655c0" stroke-width="2" />
    <text x="125" y="30" font-family="Arial" font-size="16" text-anchor="middle" fill="#1655c0" font-weight="bold">Task Proposer</text>
    <text x="125" y="60" font-family="Arial" font-size="12" text-anchor="middle" fill="#333">Creates self-improvement</text>
    <text x="125" y="80" font-family="Arial" font-size="12" text-anchor="middle" fill="#333">tasks optimized for learning</text>
    <rect x="50" y="100" width="150" height="30" rx="5" ry="5" fill="white" stroke="#ccc" />
    <text x="125" y="120" font-family="Arial" font-size="12" text-anchor="middle" fill="#666" font-style="italic">πpropose(τ)</text>
    
    <!-- Component 2 -->
    <rect x="275" y="0" width="200" height="150" rx="10" ry="10" fill="#f0f7ff" stroke="#1655c0" stroke-width="2" />
    <text x="375" y="30" font-family="Arial" font-size="16" text-anchor="middle" fill="#1655c0" font-weight="bold">Environment</text>
    <text x="375" y="60" font-family="Arial" font-size="12" text-anchor="middle" fill="#333">Provides verifiable feedback</text>
    <text x="375" y="80" font-family="Arial" font-size="12" text-anchor="middle" fill="#333">and ground truth validation</text>
    <rect x="300" y="100" width="150" height="30" rx="5" ry="5" fill="white" stroke="#ccc" />
    <text x="375" y="120" font-family="Arial" font-size="12" text-anchor="middle" fill="#666" font-style="italic">e(τ) → (x, y★)</text>
    
    <!-- Component 3 -->
    <rect x="525" y="0" width="200" height="150" rx="10" ry="10" fill="#f0f7ff" stroke="#1655c0" stroke-width="2" />
    <text x="625" y="30" font-family="Arial" font-size="16" text-anchor="middle" fill="#1655c0" font-weight="bold">Solution Generator</text>
    <text x="625" y="60" font-family="Arial" font-size="12" text-anchor="middle" fill="#333">Solves self-generated tasks</text>
    <text x="625" y="80" font-family="Arial" font-size="12" text-anchor="middle" fill="#333">and learns from outcomes</text>
    <rect x="550" y="100" width="150" height="30" rx="5" ry="5" fill="white" stroke="#ccc" />
    <text x="625" y="120" font-family="Arial" font-size="12" text-anchor="middle" fill="#666" font-style="italic">πsolve(x) → y</text>
  </g>
  
  <!-- Arrow Definitions -->
  <defs>
    <marker id="arrowhead" markerWidth="10" markerHeight="7" refX="9" refY="3.5" orient="auto">
      <polygon points="0 0, 10 3.5, 0 7" fill="#1655c0" />
    </marker>
  </defs>
</svg>