<?xml version="1.0" encoding="UTF-8"?>
<svg width="800" height="400" xmlns="http://www.w3.org/2000/svg">
  <!-- Styles -->
  <style>
    .box {
      fill: white;
      stroke: #1655c0;
      stroke-width: 2;
      rx: 6;
      ry: 6;
    }
    .arrow {
      stroke: #666;
      stroke-width: 2;
      marker-end: url(#arrowhead);
    }
    .label {
      font-family: sans-serif;
      font-size: 14px;
      text-anchor: middle;
      dominant-baseline: middle;
    }
    .step-label {
      font-family: sans-serif;
      font-size: 12px;
      fill: #666;
    }
    .code {
      font-family: monospace;
      font-size: 12px;
      fill: #333;
    }
    .title {
      font-family: sans-serif;
      font-size: 20px;
      font-weight: bold;
      text-anchor: middle;
    }
    .highlight {
      fill: #1655c0;
      color: white;
    }
  </style>
  
  <!-- Arrow marker definition -->
  <defs>
    <marker id="arrowhead" markerWidth="10" markerHeight="7" 
            refX="9" refY="3.5" orient="auto">
      <polygon points="0 0, 10 3.5, 0 7" fill="#666" />
    </marker>
  </defs>
  
  <!-- Title -->
  <text x="400" y="30" class="title">Flash Authentication Flow</text>
  
  <!-- Boxes -->
  <rect x="100" y="80" width="200" height="60" class="box" />
  <rect x="400" y="80" width="200" height="60" class="box" />
  <rect x="100" y="200" width="200" height="60" class="box" />
  <rect x="400" y="200" width="200" height="60" class="box" />
  <rect x="250" y="320" width="200" height="60" class="box" />
  
  <!-- Arrows -->
  <line x1="300" y1="110" x2="400" y2="110" class="arrow" />
  <line x1="500" y1="140" x2="500" y2="200" class="arrow" />
  <line x1="400" y1="230" x2="300" y2="230" class="arrow" />
  <line x1="200" y1="140" x2="200" y2="200" class="arrow" />
  <line x1="200" y1="260" x2="200" y2="320" class="arrow" />
  <line x1="250" y1="350" x2="120" y2="350" class="arrow" />
  <line x1="120" y1="350" x2="120" y2="260" class="arrow" />
  
  <!-- Box Labels -->
  <text x="200" y="110" class="label">1. Send login mutation</text>
  <text x="500" y="110" class="label">2. Validate credentials</text>
  <text x="200" y="230" class="label">3. Receive auth token</text>
  <text x="500" y="230" class="label">3. Generate auth token</text>
  <text x="350" y="350" class="label">4. Include token in requests</text>
  
  <!-- Step Text -->
  <text x="100" y="160" class="step-label">Client sends login request:</text>
  <text x="100" y="175" class="code">mutation Login { login(input: { phone: "+1876xxx", password: "xxx" }) { authToken } }</text>
  
  <text x="400" y="175" class="code">Server validates credentials</text>
  
  <text x="400" y="270" class="code">Server returns JWT token</text>
  
  <text x="100" y="270" class="code">Client stores the token</text>
  
  <text x="250" y="390" class="code">Authorization: Bearer eyJhbGciOiJIUzI1NiIsIn...</text>
</svg>